<?xml version="1.0" encoding="UTF-8" standalone="no"?>
<svg
   xmlns:dc="http://purl.org/dc/elements/1.1/"
   xmlns:cc="http://creativecommons.org/ns#"
   xmlns:rdf="http://www.w3.org/1999/02/22-rdf-syntax-ns#"
   xmlns:svg="http://www.w3.org/2000/svg"
   xmlns="http://www.w3.org/2000/svg"
   xmlns:sodipodi="http://sodipodi.sourceforge.net/DTD/sodipodi-0.dtd"
   xmlns:inkscape="http://www.inkscape.org/namespaces/inkscape"
   width="700pt"
   height="700pt"
   version="1.1"
   viewBox="0 0 700 700"
   id="svg14"
   sodipodi:docname="pipe_inverted.svg"
   inkscape:version="1.0.2-2 (e86c870879, 2021-01-15)">
  <metadata
     id="metadata20">
    <rdf:RDF>
      <cc:Work
         rdf:about="">
        <dc:format>image/svg+xml</dc:format>
        <dc:type
           rdf:resource="http://purl.org/dc/dcmitype/StillImage" />
        <dc:title></dc:title>
      </cc:Work>
    </rdf:RDF>
  </metadata>
  <defs
     id="defs18" />
  <sodipodi:namedview
     pagecolor="#ffffff"
     bordercolor="#666666"
     borderopacity="1"
     objecttolerance="10"
     gridtolerance="10"
     guidetolerance="10"
     inkscape:pageopacity="0"
     inkscape:pageshadow="2"
     inkscape:window-width="1920"
     inkscape:window-height="1017"
     id="namedview16"
     showgrid="false"
     inkscape:zoom="0.91071429"
     inkscape:cx="466.66667"
     inkscape:cy="466.66667"
     inkscape:window-x="-8"
     inkscape:window-y="-8"
     inkscape:window-maximized="1"
     inkscape:current-layer="svg14" />
  <g
     id="g12"
     transform="matrix(-1,0,0,1,700,0)">
    <path
       d="m 420,332.5 v -105 h 70 c 18.566,0 36.371,7.375 49.496,20.504 C 552.625,261.129 560,278.934 560,297.5 v 70 H 455 v -35 z"
       id="path2" />
    <path
       d="m 472.5,376.25 h 70 V 525 h -70 z"
       id="path4" />
    <path
       d="m 411.25,245 v 70 h -122.5 v -70 z"
       id="path6" />
    <path
       d="m 280,332.5 h -70 c -18.566,0 -36.371,-7.375 -49.496,-20.504 C 147.375,298.871 140,281.066 140,262.5 v -70 h 105 v 35 h 35 z"
       id="path8" />
    <path
       d="m 227.5,183.75 h -70 V 35 h 70 z"
       id="path10" />
  </g>
</svg>
