<?xml version="1.0" encoding="UTF-8" standalone="no"?>
<svg
   xmlns:dc="http://purl.org/dc/elements/1.1/"
   xmlns:cc="http://creativecommons.org/ns#"
   xmlns:rdf="http://www.w3.org/1999/02/22-rdf-syntax-ns#"
   xmlns:svg="http://www.w3.org/2000/svg"
   xmlns="http://www.w3.org/2000/svg"
   xmlns:sodipodi="http://sodipodi.sourceforge.net/DTD/sodipodi-0.dtd"
   xmlns:inkscape="http://www.inkscape.org/namespaces/inkscape"
   width="700pt"
   height="700pt"
   version="1.1"
   viewBox="0 0 700 700"
   id="svg164"
   sodipodi:docname="plant.svg"
   inkscape:version="1.0.2-2 (e86c870879, 2021-01-15)">
  <metadata
     id="metadata168">
    <rdf:RDF>
      <cc:Work
         rdf:about="">
        <dc:format>image/svg+xml</dc:format>
        <dc:type
           rdf:resource="http://purl.org/dc/dcmitype/StillImage" />
      </cc:Work>
    </rdf:RDF>
  </metadata>
  <sodipodi:namedview
     pagecolor="#ffffff"
     bordercolor="#666666"
     borderopacity="1"
     objecttolerance="10"
     gridtolerance="10"
     guidetolerance="10"
     inkscape:pageopacity="0"
     inkscape:pageshadow="2"
     inkscape:window-width="1920"
     inkscape:window-height="1017"
     id="namedview166"
     showgrid="false"
     inkscape:zoom="0.91071429"
     inkscape:cx="466.66667"
     inkscape:cy="466.66667"
     inkscape:window-x="-8"
     inkscape:window-y="-8"
     inkscape:window-maximized="1"
     inkscape:current-layer="g162"
     inkscape:document-rotation="0" />
  <defs
     id="defs68">
    <symbol
       id="v"
       overflow="visible">
      <path
         d="m0.92188-0.0625c-0.054687 0.03125-0.10547 0.054688-0.15625 0.0625-0.042969 0.0078125-0.09375 0.015625-0.15625 0.015625-0.16797 0-0.30469-0.046875-0.40625-0.14062-0.09375-0.09375-0.14062-0.21875-0.14062-0.375s0.046875-0.28125 0.14062-0.375c0.10156-0.09375 0.23828-0.14062 0.40625-0.14062 0.0625 0 0.11328 0.007813 0.15625 0.015625 0.050781 0.011719 0.10156 0.027344 0.15625 0.046875v0.21875c-0.054687-0.03125-0.10547-0.050781-0.15625-0.0625-0.042969-0.019531-0.089844-0.03125-0.14062-0.03125-0.085938 0-0.15625 0.03125-0.21875 0.09375-0.054688 0.054687-0.078125 0.13281-0.078125 0.23438 0 0.10547 0.023437 0.1875 0.078125 0.25 0.0625 0.054688 0.13281 0.078125 0.21875 0.078125 0.050781 0 0.097656-0.003906 0.14062-0.015625 0.050781-0.019531 0.10156-0.046875 0.15625-0.078125z"
         id="path2" />
    </symbol>
    <symbol
       id="d"
       overflow="visible">
      <path
         d="m0.67188-0.54688c-0.023437-0.007813-0.042969-0.015625-0.0625-0.015625-0.023437-0.007812-0.042969-0.015625-0.0625-0.015625-0.0625 0-0.10938 0.023437-0.14062 0.0625-0.03125 0.042969-0.046875 0.10156-0.046875 0.17188v0.34375h-0.25v-0.75h0.25v0.125c0.03125-0.050781 0.0625-0.085938 0.09375-0.10938 0.039063-0.019531 0.09375-0.03125 0.15625-0.03125h0.015625 0.046875z"
         id="path5" />
    </symbol>
    <symbol
       id="b"
       overflow="visible">
      <path
         d="m0.85938-0.375v0.0625h-0.5625c0.007813 0.0625 0.03125 0.10938 0.0625 0.14062 0.039063 0.023437 0.09375 0.03125 0.15625 0.03125 0.050781 0 0.10156-0.003906 0.15625-0.015625 0.050781-0.019531 0.10156-0.046875 0.15625-0.078125v0.1875c-0.054687 0.023438-0.10938 0.039062-0.17188 0.046875-0.054688 0.0078125-0.10938 0.015625-0.17188 0.015625-0.13672 0-0.24219-0.03125-0.3125-0.09375-0.074219-0.070313-0.10938-0.17188-0.10938-0.29688s0.035156-0.21875 0.10938-0.28125c0.070313-0.070312 0.17188-0.10938 0.29688-0.10938s0.21875 0.039063 0.28125 0.10938c0.070312 0.0625 0.10938 0.15625 0.10938 0.28125zm-0.23438-0.078125c0-0.050781-0.015625-0.085937-0.046875-0.10938-0.023437-0.03125-0.058594-0.046875-0.10938-0.046875-0.042969 0-0.078125 0.015625-0.10938 0.046875-0.03125 0.023438-0.046875 0.058594-0.046875 0.10938z"
         id="path8" />
    </symbol>
    <symbol
       id="c"
       overflow="visible">
      <path
         d="m0.45312-0.34375c-0.054687 0-0.09375 0.011719-0.125 0.03125-0.023437 0.023438-0.03125 0.046875-0.03125 0.078125s0.007813 0.058594 0.03125 0.078125c0.019531 0.011719 0.050781 0.015625 0.09375 0.015625 0.039063 0 0.078125-0.015625 0.10938-0.046875s0.046875-0.070312 0.046875-0.125v-0.03125zm0.35938-0.078125v0.42188h-0.23438v-0.10938c-0.03125 0.042969-0.070313 0.074219-0.10938 0.09375-0.042969 0.019531-0.089844 0.03125-0.14062 0.03125-0.085937 0-0.15234-0.019531-0.20312-0.0625-0.042969-0.039062-0.0625-0.097656-0.0625-0.17188 0-0.09375 0.023438-0.16016 0.078125-0.20312 0.0625-0.039063 0.16016-0.0625 0.29688-0.0625h0.14062v-0.015625c0-0.039062-0.015625-0.066406-0.046875-0.078125-0.03125-0.019531-0.078125-0.03125-0.14062-0.03125-0.054687 0-0.10156 0.007813-0.14062 0.015625-0.042969 0.011719-0.085938 0.027344-0.125 0.046875v-0.1875c0.050781-0.007813 0.10156-0.015625 0.15625-0.015625 0.050781-0.007812 0.10156-0.015625 0.15625-0.015625 0.13281 0 0.22656 0.027344 0.28125 0.078125 0.0625 0.054688 0.09375 0.14062 0.09375 0.26562z"
         id="path11" />
    </symbol>
    <symbol
       id="a"
       overflow="visible">
      <path
         d="m0.375-0.96875v0.21875h0.25v0.17188h-0.25v0.3125c0 0.042969 0.003906 0.070313 0.015625 0.078125 0.019531 0.011719 0.050781 0.015625 0.09375 0.015625h0.125v0.17188h-0.20312c-0.10547 0-0.17969-0.019531-0.21875-0.0625-0.03125-0.039062-0.046875-0.10938-0.046875-0.20312v-0.3125h-0.125v-0.17188h0.125v-0.21875z"
         id="path14" />
    </symbol>
    <symbol
       id="g"
       overflow="visible">
      <path
         d="m0.625-0.64062v-0.40625h0.25v1.0469h-0.25v-0.10938c-0.03125 0.042969-0.070312 0.074219-0.10938 0.09375-0.042969 0.019531-0.089844 0.03125-0.14062 0.03125-0.09375 0-0.17188-0.035156-0.23438-0.10938-0.054688-0.070312-0.078125-0.16406-0.078125-0.28125 0-0.11328 0.023438-0.20703 0.078125-0.28125 0.0625-0.070312 0.14062-0.10938 0.23438-0.10938 0.050781 0 0.097656 0.011719 0.14062 0.03125 0.039063 0.023437 0.078125 0.054687 0.10938 0.09375zm-0.15625 0.48438c0.050781 0 0.085938-0.015625 0.10938-0.046875 0.03125-0.039063 0.046875-0.097656 0.046875-0.17188 0-0.070312-0.015625-0.125-0.046875-0.15625-0.023437-0.039062-0.058594-0.0625-0.10938-0.0625-0.054688 0-0.09375 0.023438-0.125 0.0625-0.023438 0.03125-0.03125 0.085938-0.03125 0.15625 0 0.074219 0.007812 0.13281 0.03125 0.17188 0.03125 0.03125 0.070312 0.046875 0.125 0.046875z"
         id="path17" />
    </symbol>
    <symbol
       id="l"
       overflow="visible">
      <path
         d="m0.51562-0.15625c0.050781 0 0.085937-0.015625 0.10938-0.046875 0.03125-0.039063 0.046875-0.097656 0.046875-0.17188 0-0.070312-0.015625-0.125-0.046875-0.15625-0.023438-0.039062-0.058594-0.0625-0.10938-0.0625-0.054687 0-0.09375 0.023438-0.125 0.0625-0.023437 0.03125-0.03125 0.085938-0.03125 0.15625 0 0.074219 0.007813 0.13281 0.03125 0.17188 0.03125 0.03125 0.070313 0.046875 0.125 0.046875zm-0.15625-0.48438c0.03125-0.039063 0.066406-0.070313 0.10938-0.09375 0.039062-0.019531 0.085938-0.03125 0.14062-0.03125 0.09375 0 0.16406 0.039063 0.21875 0.10938 0.0625 0.074219 0.09375 0.16797 0.09375 0.28125 0 0.11719-0.03125 0.21094-0.09375 0.28125-0.054687 0.074219-0.125 0.10938-0.21875 0.10938-0.054687 0-0.10156-0.011719-0.14062-0.03125-0.042969-0.019531-0.078125-0.050781-0.10938-0.09375v0.10938h-0.25v-1.0469h0.25z"
         id="path20" />
    </symbol>
    <symbol
       id="k"
       overflow="visible">
      <path
         d="m0.015625-0.75h0.23438l0.20312 0.51562 0.17188-0.51562h0.25l-0.3125 0.82812c-0.042969 0.082031-0.085938 0.14062-0.125 0.17188-0.042969 0.03125-0.09375 0.046875-0.15625 0.046875h-0.14062v-0.15625h0.078125c0.039062 0 0.066406-0.011719 0.078125-0.03125 0.019531-0.011719 0.035156-0.03125 0.046875-0.0625l0.015625-0.015625z"
         id="path23" />
    </symbol>
    <symbol
       id="j"
       overflow="visible">
      <path
         d="m0.125-1h0.32812l0.23438 0.53125 0.21875-0.53125h0.32812v1h-0.23438v-0.73438l-0.23438 0.54688h-0.15625l-0.23438-0.54688v0.73438h-0.25z"
         id="path26" />
    </symbol>
    <symbol
       id="i"
       overflow="visible">
      <path
         d="m0.10938-0.29688v-0.45312h0.23438v0.078125 0.15625 0.10938 0.14062c0.007812 0.023437 0.019531 0.039063 0.03125 0.046875 0.007812 0.023438 0.019531 0.039062 0.03125 0.046875 0.019531 0.011719 0.039062 0.015625 0.0625 0.015625 0.039062 0 0.078125-0.019531 0.10938-0.0625 0.03125-0.039062 0.046875-0.09375 0.046875-0.15625v-0.375h0.23438v0.75h-0.23438v-0.10938c-0.042969 0.042969-0.085938 0.074219-0.125 0.09375-0.03125 0.019531-0.074219 0.03125-0.125 0.03125-0.085938 0-0.15234-0.023438-0.20312-0.078125-0.042969-0.050781-0.0625-0.12891-0.0625-0.23438z"
         id="path29" />
    </symbol>
    <symbol
       id="h"
       overflow="visible">
      <path
         d="m0.875-0.45312v0.45312h-0.25v-0.34375-0.14062c0-0.019531-0.007812-0.039063-0.015625-0.0625-0.011719-0.007813-0.027344-0.019531-0.046875-0.03125-0.011719-0.007813-0.027344-0.015625-0.046875-0.015625-0.054687 0-0.09375 0.023438-0.125 0.0625-0.023437 0.042969-0.03125 0.09375-0.03125 0.15625v0.375h-0.25v-1.0469h0.25v0.40625c0.03125-0.039063 0.066406-0.070313 0.10938-0.09375 0.039062-0.019531 0.085938-0.03125 0.14062-0.03125 0.082031 0 0.14453 0.027344 0.1875 0.078125 0.050781 0.054688 0.078125 0.13281 0.078125 0.23438z"
         id="path32" />
    </symbol>
    <symbol
       id="f"
       overflow="visible">
      <path
         d="m0.8125-0.625c0.03125-0.050781 0.066406-0.085938 0.10938-0.10938 0.039063-0.019531 0.085937-0.03125 0.14062-0.03125 0.082031 0 0.14453 0.027344 0.1875 0.078125 0.050781 0.054688 0.078125 0.13281 0.078125 0.23438v0.45312h-0.25v-0.39062-0.015625-0.03125c0-0.050781-0.011719-0.085938-0.03125-0.10938-0.011719-0.03125-0.03125-0.046875-0.0625-0.046875-0.042969 0-0.078125 0.023438-0.10938 0.0625-0.023438 0.042969-0.03125 0.09375-0.03125 0.15625v0.375h-0.25v-0.39062c0-0.082031-0.007812-0.13281-0.015625-0.15625-0.011719-0.03125-0.039063-0.046875-0.078125-0.046875-0.042969 0-0.078125 0.023438-0.10938 0.0625-0.023437 0.042969-0.03125 0.09375-0.03125 0.15625v0.375h-0.25v-0.75h0.25v0.10938c0.03125-0.039063 0.0625-0.070313 0.09375-0.09375 0.039063-0.019531 0.082031-0.03125 0.125-0.03125 0.050781 0 0.097656 0.015625 0.14062 0.046875 0.039062 0.023438 0.070312 0.054688 0.09375 0.09375z"
         id="path35" />
    </symbol>
    <symbol
       id="u"
       overflow="visible">
      <path
         d="m0.73438-0.1875h-0.40625l-0.0625 0.1875h-0.26562l0.375-1h0.3125l0.375 1h-0.26562zm-0.34375-0.1875h0.28125l-0.14062-0.39062z"
         id="path38" />
    </symbol>
    <symbol
       id="t"
       overflow="visible">
      <path
         d="m0.10938-0.75h0.25v0.75h-0.25zm0-0.29688h0.25v0.20312h-0.25z"
         id="path41" />
    </symbol>
    <symbol
       id="s"
       overflow="visible">
      <path
         d="m0.46875-0.59375c-0.054688 0-0.09375 0.023438-0.125 0.0625-0.023438 0.03125-0.03125 0.085938-0.03125 0.15625 0 0.074219 0.007812 0.13281 0.03125 0.17188 0.03125 0.03125 0.070312 0.046875 0.125 0.046875 0.050781 0 0.085938-0.015625 0.10938-0.046875 0.03125-0.039063 0.046875-0.097656 0.046875-0.17188 0-0.070312-0.015625-0.125-0.046875-0.15625-0.023437-0.039062-0.058594-0.0625-0.10938-0.0625zm0.15625 0.48438c-0.03125 0.042969-0.070312 0.074219-0.10938 0.09375-0.042969 0.019531-0.089844 0.03125-0.14062 0.03125-0.09375 0-0.17188-0.035156-0.23438-0.10938-0.054688-0.070312-0.078125-0.16406-0.078125-0.28125 0-0.11328 0.023438-0.20703 0.078125-0.28125 0.0625-0.070312 0.14062-0.10938 0.23438-0.10938 0.050781 0 0.097656 0.011719 0.14062 0.03125 0.039063 0.023437 0.078125 0.054687 0.10938 0.09375v-0.10938h0.25v1.0312h-0.25z"
         id="path44" />
    </symbol>
    <symbol
       id="r"
       overflow="visible">
      <path
         d="m0.60938-1.0469v0.15625h-0.125c-0.042969 0-0.070313 0.011719-0.078125 0.03125-0.011719 0.011719-0.015625 0.03125-0.015625 0.0625v0.046875h0.20312v0.17188h-0.20312v0.57812h-0.25v-0.57812h-0.10938v-0.17188h0.10938v-0.046875c0-0.082031 0.019531-0.14453 0.0625-0.1875 0.050781-0.039063 0.125-0.0625 0.21875-0.0625z"
         id="path47" />
    </symbol>
    <symbol
       id="e"
       overflow="visible">
      <path
         d="m0.46875-0.59375c-0.054688 0-0.09375 0.023438-0.125 0.0625-0.023438 0.03125-0.03125 0.085938-0.03125 0.15625 0 0.074219 0.007812 0.13281 0.03125 0.17188 0.03125 0.03125 0.070312 0.046875 0.125 0.046875 0.050781 0 0.09375-0.015625 0.125-0.046875 0.03125-0.039063 0.046875-0.097656 0.046875-0.17188 0-0.070312-0.015625-0.125-0.046875-0.15625-0.03125-0.039062-0.074219-0.0625-0.125-0.0625zm0-0.17188c0.13281 0 0.23828 0.039063 0.3125 0.10938 0.070312 0.0625 0.10938 0.15625 0.10938 0.28125s-0.039063 0.22656-0.10938 0.29688c-0.074219 0.0625-0.17969 0.09375-0.3125 0.09375-0.125 0-0.22656-0.03125-0.29688-0.09375-0.074219-0.070313-0.10938-0.17188-0.10938-0.29688s0.035156-0.21875 0.10938-0.28125c0.070313-0.070312 0.17188-0.10938 0.29688-0.10938z"
         id="path50" />
    </symbol>
    <symbol
       id="q"
       overflow="visible">
      <path
         d="m0.125-1h0.29688l0.35938 0.6875v-0.6875h0.25v1h-0.29688l-0.35938-0.6875v0.6875h-0.25z"
         id="path53" />
    </symbol>
    <symbol
       id="p"
       overflow="visible">
      <path
         d="m0.875-0.45312v0.45312h-0.25v-0.34375-0.14062c0-0.019531-0.007812-0.039063-0.015625-0.0625-0.011719-0.007813-0.027344-0.019531-0.046875-0.03125-0.011719-0.007813-0.027344-0.015625-0.046875-0.015625-0.054687 0-0.09375 0.023438-0.125 0.0625-0.023437 0.042969-0.03125 0.09375-0.03125 0.15625v0.375h-0.25v-0.75h0.25v0.10938c0.03125-0.039063 0.066406-0.070313 0.10938-0.09375 0.039062-0.019531 0.085938-0.03125 0.14062-0.03125 0.082031 0 0.14453 0.027344 0.1875 0.078125 0.050781 0.054688 0.078125 0.13281 0.078125 0.23438z"
         id="path56" />
    </symbol>
    <symbol
       id="o"
       overflow="visible">
      <path
         d="m0.125-1h0.4375c0.125 0 0.21875 0.03125 0.28125 0.09375 0.070312 0.054688 0.10938 0.13281 0.10938 0.23438 0 0.10547-0.039063 0.1875-0.10938 0.25-0.0625 0.054687-0.15625 0.078125-0.28125 0.078125h-0.17188v0.34375h-0.26562zm0.26562 0.1875v0.28125h0.14062c0.050781 0 0.085938-0.007812 0.10938-0.03125 0.03125-0.03125 0.046875-0.066406 0.046875-0.10938 0-0.050781-0.015625-0.085937-0.046875-0.10938-0.023437-0.019531-0.058594-0.03125-0.10938-0.03125z"
         id="path59" />
    </symbol>
    <symbol
       id="n"
       overflow="visible">
      <path
         d="m0.10938-0.75h0.25v0.73438c0 0.10156-0.027344 0.17969-0.078125 0.23438-0.054688 0.050781-0.12109 0.078125-0.20312 0.078125h-0.125v-0.15625h0.046875c0.039062 0 0.066406-0.011719 0.078125-0.03125 0.019531-0.023438 0.03125-0.0625 0.03125-0.125zm0-0.29688h0.25v0.20312h-0.25z"
         id="path62" />
    </symbol>
    <symbol
       id="m"
       overflow="visible">
      <path
         d="m0.71875-0.73438v0.20312c-0.03125-0.019531-0.0625-0.035156-0.09375-0.046875-0.03125-0.007813-0.070312-0.015625-0.10938-0.015625-0.0625 0-0.11719 0.023438-0.15625 0.0625-0.03125 0.03125-0.046875 0.085938-0.046875 0.15625 0 0.074219 0.015625 0.13281 0.046875 0.17188 0.039063 0.03125 0.09375 0.046875 0.15625 0.046875 0.039063 0 0.078125-0.003906 0.10938-0.015625 0.039062-0.007813 0.070312-0.023437 0.09375-0.046875v0.20312c-0.03125 0.011719-0.070312 0.015625-0.10938 0.015625-0.042969 0.0078125-0.085937 0.015625-0.125 0.015625-0.13672 0-0.24219-0.03125-0.3125-0.09375-0.074219-0.070313-0.10938-0.17188-0.10938-0.29688s0.035156-0.21875 0.10938-0.28125c0.070313-0.070312 0.17578-0.10938 0.3125-0.10938 0.039063 0 0.082031 0.007813 0.125 0.015625 0.039063 0 0.078125 0.007812 0.10938 0.015625z"
         id="path65" />
    </symbol>
  </defs>
  <g
     id="g162">
    <path
       d="m414.18 115.59c-1.2188-4.4766-5.8359-7.1133-10.309-5.8945-4.4766 1.2188-7.1133 5.8359-5.8945 10.309 0.066406 0.24609 24.203 85.945-22.574 141.68-2.9844 3.5664-2.5117 8.875 1.0547 11.859s8.875 2.5117 11.859-1.0547c52.465-62.516 25.941-156.63 25.867-156.9z"
       id="path70" />
    <path
       d="m289.35 174.86c-2.0938-4.1484-7.1523-5.8125-11.297-3.7227-4.1484 2.0938-5.8125 7.1523-3.7227 11.297 0.10938 0.21484 37.02 74.477 105.34 92.789 4.4922 1.1992 9.1094-1.4688 10.309-5.9609 1.1992-4.4922-1.4688-9.1094-5.9609-10.309-60.988-16.344-94.574-83.898-94.672-84.094z"
       id="path72" />
    <path
       d="m390.29 267.09c0-4.6562-3.7773-8.4336-8.4336-8.4336s-8.4336 3.7773-8.4336 8.4336v56.508c0 4.6562 3.7773 8.4336 8.4336 8.4336s8.4336-3.7773 8.4336-8.4336z"
       id="path74" />
    <path
       d="m308.61 323.59h146.49c9.8633 0 17.859 9.8633 17.859 17.859 0 9.8633-7.9961 17.859-17.859 17.859h-146.49c-9.8633 0-17.859-9.8633-17.859-17.859 0-9.8633 7.9961-17.859 17.859-17.859z"
       fill-rule="evenodd"
       id="path76"
       style="fill:#b25520;fill-opacity:1" />
    <path
       d="m455.09 367.75h-146.49c-1.7422 0-3.4258-0.25391-5.0195-0.72266l13.863 159.07h128.8l13.781-159.04c-1.5703 0.45312-3.2266 0.69922-4.9336 0.69922z"
       fill-rule="evenodd"
       id="path78"
       style="fill:#b25520;fill-opacity:1" />
    <path
       d="m428 195.77c34.855-17.555 52.969-73.73-30.527-161.87-2.1055 21.426-11.785 30.723-21.133 47.66-41.301 74.863-15.855 113.05 17.055 119.21 1.75-10.113 2.4766-20.449 2.4102-30.703-0.10156-15.129-1.9492-33.137-5.9688-47.855-2.4375-8.9258 2.8867-18.234 11.816-20.668 8.918-2.4297 18.211 2.8828 20.656 11.793 1.5195 5.4727 2.6445 11.34 3.5898 16.93 2.2617 13.395 3.4492 27.09 3.4648 40.672 0.007813 8.3047-0.42578 16.605-1.3633 24.824z"
       fill-rule="evenodd"
       id="path80"
       style="fill:#00cc00;fill-opacity:1" />
    <path
       d="m346.09 230.34c21.234-27.34 14.285-74.402-70.402-98.875-18.586-5.3711-32.004-5.0977-48.645-18.758 3.1875 117.95 52.891 146.68 89.703 136.98-7.7383-6.7812-14.945-14.188-21.598-21.984-7.6562-8.9766-14.703-18.59-20.961-28.594-2.5859-4.1367-5.2031-8.5078-7.3906-12.875-4.1914-8.3047-0.84375-18.426 7.457-22.613 8.3008-4.1875 18.434-0.84766 22.621 7.4492 5.9414 11.766 14.969 24.367 23.414 34.355 7.6602 9.0586 16.285 17.602 25.797 24.922z"
       fill-rule="evenodd"
       id="path82"
       style="fill:#00cc00;fill-opacity:1" />
  </g>
</svg>
