<?xml version="1.0" encoding="UTF-8"?>
<svg width="700pt" height="700pt" version="1.1" viewBox="0 0 700 700" xmlns="http://www.w3.org/2000/svg">
 <g>
  <path d="m288.71 104.96v35h-17.43v52.566l-35.035 0.003906v-35h-52.43v35h-52.605v70.035h-35v87.43h35v70.035h140.07v35h244.9v-35h45.867l1.8125-0.92188 39.922-20.031v-185.73l-41.734-20.816h-45.867v-52.566h-17.434v-35zm17.57 17.566h174.9v35h17.566v35l-210.04 0.003906v-35h17.57zm-105.04 52.434h17.43v17.566l-17.43 0.003906zm-52.43 35h122.46v192.5h-122.46zm139.9 0h210.04v192.5h-210.04zm227.46 0h41.734l28.301 14.219v164.2l-28.301 14.082h-41.734zm-402.4 70.035h17.43v52.43l-17.43 0.003907zm174.93 140.04h210.04v17.434l-210.04-0.003906z"/>
  <path d="m315.07 227.53v17.465h157.46v-17.465z"/>
  <path d="m315.07 262.57v17.434h157.46v-17.434z"/>
  <path d="m315.07 297.57v17.434h157.46v-17.434z"/>
  <path d="m315.07 332.43v17.566h157.46v-17.566z"/>
  <path d="m315.07 367.46v17.566h157.46v-17.566z"/>
 </g>
</svg>
